<svg xmlns="http://www.w3.org/2000/svg" xmlns:xlink="http://www.w3.org/1999/xlink" width="300" zoomAndPan="magnify" viewBox="0 0 224.87999 112.499997" height="150" preserveAspectRatio="xMidYMid meet" version="1.0"><defs><g/><clipPath id="c900589518"><path d="M 87.21875 5.320312 L 172.195312 5.320312 L 172.195312 24.457031 L 87.21875 24.457031 Z M 87.21875 5.320312 " clip-rule="nonzero"/></clipPath><clipPath id="2d4fa4f66d"><path d="M 0.828125 0.0625 L 89 0.0625 L 89 46 L 0.828125 46 Z M 0.828125 0.0625 " clip-rule="nonzero"/></clipPath><clipPath id="74d796a2c6"><path d="M 2 0.0625 L 26 0.0625 L 26 44 L 2 44 Z M 2 0.0625 " clip-rule="nonzero"/></clipPath><clipPath id="22c7402e6d"><rect x="0" width="89" y="0" height="46"/></clipPath><clipPath id="703281793e"><path d="M 0.144531 1 L 5 1 L 5 8 L 0.144531 8 Z M 0.144531 1 " clip-rule="nonzero"/></clipPath><clipPath id="49a99e708c"><rect x="0" width="61" y="0" height="11"/></clipPath><clipPath id="860f2b435a"><path d="M 14 52 L 138 52 L 138 61.46875 L 14 61.46875 Z M 14 52 " clip-rule="nonzero"/></clipPath><clipPath id="6ead90a117"><path d="M 1 0.152344 L 7 0.152344 L 7 7 L 1 7 Z M 1 0.152344 " clip-rule="nonzero"/></clipPath><clipPath id="4db74d724e"><path d="M 9 0.152344 L 15 0.152344 L 15 7 L 9 7 Z M 9 0.152344 " clip-rule="nonzero"/></clipPath><clipPath id="808a853ac1"><path d="M 16 0.152344 L 21 0.152344 L 21 7 L 16 7 Z M 16 0.152344 " clip-rule="nonzero"/></clipPath><clipPath id="a37285e9a1"><path d="M 22 0.152344 L 29 0.152344 L 29 7 L 22 7 Z M 22 0.152344 " clip-rule="nonzero"/></clipPath><clipPath id="1e9193a70a"><path d="M 30 0.152344 L 37 0.152344 L 37 7 L 30 7 Z M 30 0.152344 " clip-rule="nonzero"/></clipPath><clipPath id="a8546a19e4"><path d="M 40 0.152344 L 46 0.152344 L 46 7 L 40 7 Z M 40 0.152344 " clip-rule="nonzero"/></clipPath><clipPath id="63972da894"><path d="M 48 0.152344 L 55 0.152344 L 55 7 L 48 7 Z M 48 0.152344 " clip-rule="nonzero"/></clipPath><clipPath id="37cdc33350"><path d="M 61 0.152344 L 68 0.152344 L 68 7 L 61 7 Z M 61 0.152344 " clip-rule="nonzero"/></clipPath><clipPath id="1158b4eb1d"><path d="M 70 0.152344 L 72 0.152344 L 72 7 L 70 7 Z M 70 0.152344 " clip-rule="nonzero"/></clipPath><clipPath id="8e8b2124e1"><path d="M 75 0.152344 L 79 0.152344 L 79 7 L 75 7 Z M 75 0.152344 " clip-rule="nonzero"/></clipPath><clipPath id="adc12d77e1"><path d="M 81 0.152344 L 86 0.152344 L 86 7 L 81 7 Z M 81 0.152344 " clip-rule="nonzero"/></clipPath><clipPath id="fab66ce07b"><path d="M 88 0.152344 L 95 0.152344 L 95 7 L 88 7 Z M 88 0.152344 " clip-rule="nonzero"/></clipPath><clipPath id="0b4ddddb44"><path d="M 97 0.152344 L 102 0.152344 L 102 7 L 97 7 Z M 97 0.152344 " clip-rule="nonzero"/></clipPath><clipPath id="45ab0bf766"><path d="M 104 0.152344 L 107 0.152344 L 107 7 L 104 7 Z M 104 0.152344 " clip-rule="nonzero"/></clipPath><clipPath id="89a1986653"><path d="M 108 0.152344 L 115 0.152344 L 115 7 L 108 7 Z M 108 0.152344 " clip-rule="nonzero"/></clipPath><clipPath id="cf1b8bb1c8"><path d="M 117 0.152344 L 121 0.152344 L 121 7 L 117 7 Z M 117 0.152344 " clip-rule="nonzero"/></clipPath><clipPath id="6bbcef7a5e"><rect x="0" width="124" y="0" height="10"/></clipPath><clipPath id="7479068dfe"><rect x="0" width="173" y="0" height="62"/></clipPath></defs><g transform="matrix(1, 0, 0, 1, 29, 31)"><g clip-path="url(#7479068dfe)"><g clip-path="url(#c900589518)"><path fill="#8f5d46" d="M 172.007812 5.320312 C 170.714844 8.828125 168.746094 11.914062 166.105469 14.582031 C 163.460938 17.253906 160.28125 19.289062 156.558594 20.691406 C 152.839844 22.09375 148.632812 22.78125 143.941406 22.753906 C 139.25 22.726562 134.179688 21.769531 128.734375 19.882812 C 125.285156 18.695312 122.101562 17.875 119.191406 17.414062 C 116.277344 16.957031 113.515625 16.820312 110.898438 17.011719 C 108.285156 17.199219 105.75 17.683594 103.296875 18.464844 C 100.84375 19.25 98.320312 20.234375 95.734375 21.417969 C 94.871094 21.796875 94.089844 22.175781 93.386719 22.550781 C 92.6875 22.929688 92.011719 23.183594 91.367188 23.320312 C 90.71875 23.453125 90.03125 23.414062 89.304688 23.199219 C 88.792969 23.046875 88.226562 22.761719 87.597656 22.347656 C 87.53125 22.359375 87.457031 22.367188 87.382812 22.367188 C 87.335938 22.414062 87.285156 22.457031 87.230469 22.492188 L 87.230469 22.925781 C 87.347656 23 87.441406 23.097656 87.511719 23.214844 C 88.1875 23.621094 88.8125 23.886719 89.382812 24.007812 C 90.164062 24.167969 90.90625 24.183594 91.609375 24.046875 C 92.308594 23.914062 93.023438 23.671875 93.753906 23.320312 C 94.480469 22.96875 95.300781 22.578125 96.21875 22.144531 C 98.589844 21.066406 100.976562 20.152344 103.378906 19.394531 C 105.777344 18.640625 108.285156 18.15625 110.898438 17.941406 C 113.515625 17.726562 116.265625 17.859375 119.148438 18.34375 C 122.035156 18.828125 125.148438 19.773438 128.492188 21.175781 C 132.429688 22.792969 136.675781 23.695312 141.230469 23.886719 C 145.789062 24.074219 150.15625 23.535156 154.335938 22.265625 C 158.515625 21 162.234375 18.980469 165.496094 16.203125 C 168.761719 13.425781 171.066406 9.851562 172.414062 5.484375 Z M 172.007812 5.320312 " fill-opacity="1" fill-rule="nonzero"/></g><g clip-path="url(#2d4fa4f66d)"><g transform="matrix(1, 0, 0, 1, 0.000000000000003553, 0)"><g clip-path="url(#22c7402e6d)"><g clip-path="url(#74d796a2c6)"><g fill="#8f5d46" fill-opacity="1"><g transform="translate(1.345175, 27.960707)"><g><path d="M 22.4375 -11.109375 C 23.132812 -10.234375 23.625 -9.207031 23.90625 -8.03125 C 24.1875 -6.851562 24.25 -5.597656 24.09375 -4.265625 C 23.945312 -2.941406 23.570312 -1.601562 22.96875 -0.25 C 22.082031 1.800781 20.847656 3.585938 19.265625 5.109375 C 17.679688 6.628906 15.828125 7.84375 13.703125 8.75 C 11.585938 9.65625 9.285156 10.195312 6.796875 10.375 C 6.796875 10.375 6.785156 10.375 6.765625 10.375 C 6.429688 10.375 6.257812 10.210938 6.25 9.890625 C 6.226562 9.742188 6.265625 9.613281 6.359375 9.5 C 6.460938 9.394531 6.578125 9.34375 6.703125 9.34375 C 9.078125 9.15625 11.265625 8.632812 13.265625 7.78125 C 15.265625 6.9375 17.015625 5.800781 18.515625 4.375 C 20.023438 2.945312 21.195312 1.269531 22.03125 -0.65625 C 22.570312 -1.882812 22.910156 -3.101562 23.046875 -4.3125 C 23.191406 -5.53125 23.144531 -6.660156 22.90625 -7.703125 C 22.664062 -8.753906 22.234375 -9.671875 21.609375 -10.453125 C 20.597656 -11.703125 19.207031 -12.445312 17.4375 -12.6875 C 16.675781 -11.882812 15.8125 -11.097656 14.84375 -10.328125 C 13.875 -9.554688 12.894531 -8.851562 11.90625 -8.21875 C 10.914062 -7.59375 9.988281 -7.078125 9.125 -6.671875 C 8.269531 -6.265625 7.554688 -6.023438 6.984375 -5.953125 C 6.578125 -3.992188 6.179688 -2.035156 5.796875 -0.078125 C 5.421875 1.867188 5.078125 3.710938 4.765625 5.453125 C 4.453125 7.191406 4.1875 8.75 3.96875 10.125 C 3.75 11.5 3.59375 12.601562 3.5 13.4375 C 3.539062 13.351562 3.578125 13.265625 3.609375 13.171875 C 3.660156 13.023438 3.753906 12.925781 3.890625 12.875 C 4.023438 12.820312 4.164062 12.820312 4.3125 12.875 C 4.445312 12.925781 4.539062 13.019531 4.59375 13.15625 C 4.644531 13.289062 4.644531 13.421875 4.59375 13.546875 C 4.300781 14.253906 4.050781 14.78125 3.84375 15.125 C 3.632812 15.46875 3.40625 15.640625 3.15625 15.640625 C 3.082031 15.640625 3.007812 15.625 2.9375 15.59375 C 2.8125 15.550781 2.695312 15.453125 2.59375 15.296875 C 2.488281 15.148438 2.429688 14.84375 2.421875 14.375 C 2.421875 13.914062 2.476562 13.21875 2.59375 12.28125 C 2.707031 11.351562 2.898438 10.101562 3.171875 8.53125 C 3.441406 6.957031 3.800781 4.960938 4.25 2.546875 C 4.707031 0.140625 5.28125 -2.769531 5.96875 -6.1875 C 5.882812 -6.257812 5.8125 -6.375 5.75 -6.53125 C 5.6875 -6.6875 5.679688 -6.890625 5.734375 -7.140625 C 5.910156 -7.796875 6.179688 -8.421875 6.546875 -9.015625 C 6.710938 -9.847656 6.882812 -10.703125 7.0625 -11.578125 C 7.238281 -12.460938 7.421875 -13.375 7.609375 -14.3125 C 8.054688 -16.519531 8.472656 -18.570312 8.859375 -20.46875 C 9.253906 -22.375 9.578125 -24.023438 9.828125 -25.421875 C 8.972656 -25.203125 8.175781 -24.898438 7.4375 -24.515625 C 5.445312 -23.554688 4.035156 -22.210938 3.203125 -20.484375 C 2.367188 -18.753906 2.1875 -16.804688 2.65625 -14.640625 C 2.695312 -14.492188 2.675781 -14.359375 2.59375 -14.234375 C 2.507812 -14.117188 2.40625 -14.046875 2.28125 -14.015625 C 2.132812 -13.972656 2 -13.992188 1.875 -14.078125 C 1.75 -14.160156 1.675781 -14.273438 1.65625 -14.421875 C 1.113281 -16.847656 1.304688 -19.023438 2.234375 -20.953125 C 3.171875 -22.878906 4.753906 -24.382812 6.984375 -25.46875 C 7.941406 -25.9375 8.960938 -26.289062 10.046875 -26.53125 C 10.066406 -26.625 10.082031 -26.707031 10.09375 -26.78125 C 10.113281 -26.863281 10.132812 -26.953125 10.15625 -27.046875 C 10.175781 -27.191406 10.242188 -27.304688 10.359375 -27.390625 C 10.472656 -27.472656 10.601562 -27.492188 10.75 -27.453125 C 10.894531 -27.429688 11.007812 -27.363281 11.09375 -27.25 C 11.175781 -27.132812 11.195312 -27.003906 11.15625 -26.859375 C 11.15625 -26.835938 11.15625 -26.816406 11.15625 -26.796875 C 11.15625 -26.785156 11.15625 -26.769531 11.15625 -26.75 C 12.375 -26.914062 13.570312 -26.929688 14.75 -26.796875 C 15.925781 -26.660156 16.992188 -26.375 17.953125 -25.9375 C 18.910156 -25.5 19.6875 -24.921875 20.28125 -24.203125 C 20.96875 -23.378906 21.359375 -22.503906 21.453125 -21.578125 C 21.554688 -20.660156 21.472656 -19.75 21.203125 -18.84375 C 20.929688 -17.9375 20.566406 -17.082031 20.109375 -16.28125 C 19.648438 -15.488281 19.203125 -14.804688 18.765625 -14.234375 C 18.617188 -14.015625 18.445312 -13.796875 18.25 -13.578125 C 20.007812 -13.210938 21.40625 -12.390625 22.4375 -11.109375 Z M 7.203125 -7.03125 C 7.617188 -7.15625 8.160156 -7.378906 8.828125 -7.703125 C 9.492188 -8.035156 10.242188 -8.453125 11.078125 -8.953125 C 11.910156 -9.460938 12.753906 -10.035156 13.609375 -10.671875 C 14.472656 -11.304688 15.285156 -11.992188 16.046875 -12.734375 C 15.335938 -12.734375 14.597656 -12.648438 13.828125 -12.484375 C 13.066406 -12.347656 12.285156 -12.109375 11.484375 -11.765625 C 10.691406 -11.429688 9.953125 -11.003906 9.265625 -10.484375 C 8.578125 -9.972656 7.992188 -9.359375 7.515625 -8.640625 C 7.460938 -8.367188 7.410156 -8.097656 7.359375 -7.828125 C 7.304688 -7.566406 7.253906 -7.300781 7.203125 -7.03125 Z M 17.03125 -13.765625 C 17.375 -14.128906 17.679688 -14.492188 17.953125 -14.859375 C 19.273438 -16.648438 20.070312 -18.285156 20.34375 -19.765625 C 20.613281 -21.253906 20.332031 -22.503906 19.5 -23.515625 C 18.957031 -24.171875 18.238281 -24.6875 17.34375 -25.0625 C 16.445312 -25.445312 15.441406 -25.6875 14.328125 -25.78125 C 13.210938 -25.882812 12.082031 -25.835938 10.9375 -25.640625 C 10.6875 -24.242188 10.359375 -22.550781 9.953125 -20.5625 C 9.546875 -18.582031 9.109375 -16.4375 8.640625 -14.125 C 8.523438 -13.582031 8.410156 -13.03125 8.296875 -12.46875 C 8.179688 -11.90625 8.066406 -11.332031 7.953125 -10.75 C 8.660156 -11.425781 9.5 -12 10.46875 -12.46875 C 11.4375 -12.9375 12.488281 -13.289062 13.625 -13.53125 C 14.820312 -13.757812 15.957031 -13.835938 17.03125 -13.765625 Z M 17.03125 -13.765625 "/></g></g></g></g><g fill="#8f5d46" fill-opacity="1"><g transform="translate(27.933146, 27.960707)"><g><path d="M 7.953125 -6.1875 C 8.078125 -6.113281 8.15625 -6.003906 8.1875 -5.859375 C 8.21875 -5.722656 8.195312 -5.585938 8.125 -5.453125 C 7.78125 -4.910156 7.34375 -4.304688 6.8125 -3.640625 C 6.289062 -2.972656 5.722656 -2.332031 5.109375 -1.71875 C 4.492188 -1.113281 3.878906 -0.613281 3.265625 -0.21875 C 2.660156 0.175781 2.109375 0.375 1.609375 0.375 C 1.390625 0.375 1.195312 0.335938 1.03125 0.265625 C 0.414062 -0.00390625 0.078125 -0.660156 0.015625 -1.703125 C -0.046875 -2.742188 0.164062 -4.210938 0.65625 -6.109375 C 0.6875 -6.253906 0.765625 -6.363281 0.890625 -6.4375 C 1.023438 -6.507812 1.15625 -6.523438 1.28125 -6.484375 C 1.425781 -6.453125 1.53125 -6.375 1.59375 -6.25 C 1.664062 -6.125 1.6875 -5.992188 1.65625 -5.859375 C 1.363281 -4.703125 1.179688 -3.785156 1.109375 -3.109375 C 1.035156 -2.429688 1.019531 -1.921875 1.0625 -1.578125 C 1.113281 -1.234375 1.179688 -1 1.265625 -0.875 C 1.359375 -0.757812 1.414062 -0.703125 1.4375 -0.703125 C 1.675781 -0.597656 2.019531 -0.675781 2.46875 -0.9375 C 2.925781 -1.195312 3.429688 -1.582031 3.984375 -2.09375 C 4.546875 -2.613281 5.113281 -3.210938 5.6875 -3.890625 C 6.257812 -4.578125 6.769531 -5.289062 7.21875 -6.03125 C 7.3125 -6.15625 7.425781 -6.226562 7.5625 -6.25 C 7.695312 -6.28125 7.828125 -6.257812 7.953125 -6.1875 Z M 1.546875 -8.359375 C 1.179688 -8.378906 0.992188 -8.484375 0.984375 -8.671875 C 0.984375 -8.867188 1.066406 -9.066406 1.234375 -9.265625 C 1.410156 -9.460938 1.585938 -9.597656 1.765625 -9.671875 C 2.054688 -9.753906 2.269531 -9.734375 2.40625 -9.609375 C 2.539062 -9.484375 2.601562 -9.320312 2.59375 -9.125 C 2.582031 -8.925781 2.488281 -8.742188 2.3125 -8.578125 C 2.144531 -8.421875 1.890625 -8.347656 1.546875 -8.359375 Z M 1.546875 -8.359375 "/></g></g></g><g fill="#8f5d46" fill-opacity="1"><g transform="translate(34.804197, 27.960707)"><g><path d="M 22.921875 -16.015625 C 23.015625 -15.910156 23.050781 -15.785156 23.03125 -15.640625 C 23.007812 -15.492188 22.9375 -15.375 22.8125 -15.28125 C 22.59375 -15.144531 22.382812 -15.15625 22.1875 -15.3125 C 21.945312 -15.40625 21.40625 -15.46875 20.5625 -15.5 C 19.726562 -15.539062 18.675781 -15.566406 17.40625 -15.578125 C 16.132812 -15.585938 14.738281 -15.582031 13.21875 -15.5625 C 11.695312 -15.539062 10.132812 -15.515625 8.53125 -15.484375 C 6.9375 -15.460938 5.390625 -15.429688 3.890625 -15.390625 C 3.328125 -13.046875 2.734375 -10.488281 2.109375 -7.71875 C 1.492188 -4.957031 0.890625 -2.160156 0.296875 0.671875 C -0.484375 4.398438 -1.082031 7.457031 -1.5 9.84375 C -1.925781 12.238281 -2.203125 13.972656 -2.328125 15.046875 C -2.296875 15.046875 -2.265625 15.054688 -2.234375 15.078125 C -2.085938 15.109375 -1.984375 15.191406 -1.921875 15.328125 C -1.867188 15.460938 -1.867188 15.59375 -1.921875 15.71875 C -2.035156 16.03125 -2.160156 16.316406 -2.296875 16.578125 C -2.429688 16.835938 -2.613281 16.96875 -2.84375 16.96875 C -2.90625 16.96875 -2.972656 16.960938 -3.046875 16.953125 C -3.296875 16.859375 -3.429688 16.660156 -3.453125 16.359375 C -3.484375 16.054688 -3.460938 15.644531 -3.390625 15.125 C -3.316406 14.363281 -3.15625 13.269531 -2.90625 11.84375 C -2.6875 10.5 -2.40625 8.929688 -2.0625 7.140625 C -1.71875 5.347656 -1.320312 3.382812 -0.875 1.25 C -0.269531 -1.644531 0.34375 -4.519531 0.96875 -7.375 C 1.601562 -10.238281 2.210938 -12.90625 2.796875 -15.375 C 1.929688 -15.351562 1.109375 -15.332031 0.328125 -15.3125 C -0.453125 -15.289062 -1.160156 -15.273438 -1.796875 -15.265625 C -3.003906 -15.222656 -4.0625 -15.191406 -4.96875 -15.171875 C -5.875 -15.160156 -6.515625 -15.15625 -6.890625 -15.15625 C -7.035156 -15.15625 -7.15625 -15.203125 -7.25 -15.296875 C -7.351562 -15.398438 -7.40625 -15.523438 -7.40625 -15.671875 C -7.40625 -15.816406 -7.351562 -15.9375 -7.25 -16.03125 C -7.15625 -16.132812 -7.035156 -16.1875 -6.890625 -16.1875 C -6.515625 -16.1875 -5.878906 -16.195312 -4.984375 -16.21875 C -4.085938 -16.25 -3.03125 -16.285156 -1.8125 -16.328125 C -0.945312 -16.335938 -0.109375 -16.351562 0.703125 -16.375 C 1.515625 -16.394531 2.300781 -16.410156 3.0625 -16.421875 C 3.332031 -17.585938 3.597656 -18.679688 3.859375 -19.703125 C 4.128906 -20.722656 4.378906 -21.660156 4.609375 -22.515625 C 4.648438 -22.660156 4.734375 -22.769531 4.859375 -22.84375 C 4.984375 -22.914062 5.109375 -22.929688 5.234375 -22.890625 C 5.378906 -22.859375 5.488281 -22.773438 5.5625 -22.640625 C 5.632812 -22.515625 5.65625 -22.378906 5.625 -22.234375 C 5.1875 -20.628906 4.6875 -18.703125 4.125 -16.453125 C 6.945312 -16.503906 9.363281 -16.546875 11.375 -16.578125 C 13.382812 -16.609375 15.066406 -16.625 16.421875 -16.625 C 17.785156 -16.625 18.882812 -16.601562 19.71875 -16.5625 C 20.5625 -16.53125 21.203125 -16.488281 21.640625 -16.4375 C 22.078125 -16.394531 22.382812 -16.335938 22.5625 -16.265625 C 22.75 -16.191406 22.867188 -16.109375 22.921875 -16.015625 Z M 22.921875 -16.015625 "/></g></g></g><g fill="#8f5d46" fill-opacity="1"><g transform="translate(38.416249, 27.960707)"><g><path d="M 11.34375 -5.125 C 11.488281 -5.070312 11.582031 -4.972656 11.625 -4.828125 C 11.675781 -4.679688 11.664062 -4.546875 11.59375 -4.421875 C 11.269531 -3.734375 10.90625 -3.035156 10.5 -2.328125 C 10.09375 -1.628906 9.660156 -0.984375 9.203125 -0.390625 C 8.753906 0.191406 8.289062 0.660156 7.8125 1.015625 C 7.34375 1.367188 6.882812 1.546875 6.4375 1.546875 C 6.320312 1.546875 6.210938 1.535156 6.109375 1.515625 C 4.898438 1.265625 4.148438 -0.363281 3.859375 -3.375 C 3.546875 -2.9375 3.191406 -2.460938 2.796875 -1.953125 C 2.398438 -1.441406 1.96875 -0.9375 1.5 -0.4375 C 1.425781 -0.363281 1.304688 -0.253906 1.140625 -0.109375 C 0.972656 0.0351562 0.78125 0.148438 0.5625 0.234375 C 0.351562 0.328125 0.140625 0.332031 -0.078125 0.25 C -0.515625 0.0820312 -0.722656 -0.390625 -0.703125 -1.171875 C -0.679688 -1.640625 -0.582031 -2.203125 -0.40625 -2.859375 C -0.238281 -3.523438 -0.00390625 -4.195312 0.296875 -4.875 C 0.609375 -5.550781 0.976562 -6.148438 1.40625 -6.671875 C 1.84375 -7.203125 2.320312 -7.566406 2.84375 -7.765625 C 3.15625 -7.867188 3.546875 -7.882812 4.015625 -7.8125 C 4.484375 -7.75 4.972656 -7.410156 5.484375 -6.796875 C 5.578125 -6.679688 5.617188 -6.550781 5.609375 -6.40625 C 5.597656 -6.257812 5.539062 -6.144531 5.4375 -6.0625 C 5.320312 -5.96875 5.191406 -5.925781 5.046875 -5.9375 C 4.898438 -5.945312 4.785156 -6.003906 4.703125 -6.109375 C 4.285156 -6.617188 3.914062 -6.859375 3.59375 -6.828125 C 3.28125 -6.804688 3.003906 -6.710938 2.765625 -6.546875 C 2.367188 -6.253906 2.007812 -5.84375 1.6875 -5.3125 C 1.375 -4.78125 1.109375 -4.207031 0.890625 -3.59375 C 0.671875 -2.988281 0.507812 -2.429688 0.40625 -1.921875 C 0.3125 -1.421875 0.296875 -1.050781 0.359375 -0.8125 C 0.390625 -0.832031 0.4375 -0.867188 0.5 -0.921875 C 0.5625 -0.972656 0.640625 -1.054688 0.734375 -1.171875 C 1.242188 -1.710938 1.71875 -2.269531 2.15625 -2.84375 C 2.601562 -3.425781 2.976562 -3.9375 3.28125 -4.375 C 3.394531 -4.53125 3.5 -4.671875 3.59375 -4.796875 C 3.695312 -4.929688 3.785156 -5.050781 3.859375 -5.15625 C 4.003906 -5.34375 4.191406 -5.398438 4.421875 -5.328125 C 4.660156 -5.253906 4.789062 -5.097656 4.8125 -4.859375 C 4.863281 -3.679688 4.957031 -2.738281 5.09375 -2.03125 C 5.226562 -1.332031 5.375 -0.800781 5.53125 -0.4375 C 5.695312 -0.0703125 5.851562 0.164062 6 0.28125 C 6.144531 0.40625 6.253906 0.472656 6.328125 0.484375 C 6.691406 0.554688 7.25 0.207031 8 -0.5625 C 8.75 -1.34375 9.640625 -2.785156 10.671875 -4.890625 C 10.722656 -5.015625 10.816406 -5.101562 10.953125 -5.15625 C 11.085938 -5.207031 11.21875 -5.195312 11.34375 -5.125 Z M 3.234375 -9.390625 C 3.117188 -9.484375 3.050781 -9.601562 3.03125 -9.75 C 3.019531 -9.894531 3.0625 -10.019531 3.15625 -10.125 L 4.890625 -12.328125 C 4.984375 -12.429688 5.097656 -12.492188 5.234375 -12.515625 C 5.378906 -12.535156 5.507812 -12.5 5.625 -12.40625 C 5.75 -12.320312 5.816406 -12.207031 5.828125 -12.0625 C 5.835938 -11.914062 5.796875 -11.78125 5.703125 -11.65625 L 3.96875 -9.484375 C 3.851562 -9.347656 3.71875 -9.28125 3.5625 -9.28125 C 3.4375 -9.28125 3.328125 -9.316406 3.234375 -9.390625 Z M 3.234375 -9.390625 "/></g></g></g><g fill="#8f5d46" fill-opacity="1"><g transform="translate(48.491981, 27.960707)"><g><path d="M 8.984375 -6.171875 C 9.097656 -6.097656 9.171875 -5.988281 9.203125 -5.84375 C 9.242188 -5.695312 9.21875 -5.566406 9.125 -5.453125 C 8.257812 -4.117188 7.398438 -2.878906 6.546875 -1.734375 C 5.691406 -0.597656 4.851562 0.320312 4.03125 1.03125 C 3.207031 1.738281 2.40625 2.09375 1.625 2.09375 C 1.46875 2.09375 1.304688 2.070312 1.140625 2.03125 C 0.484375 1.882812 -0.015625 1.503906 -0.359375 0.890625 C -0.628906 0.398438 -0.785156 -0.160156 -0.828125 -0.796875 C -0.867188 -1.441406 -0.832031 -2.097656 -0.71875 -2.765625 C -0.613281 -3.441406 -0.457031 -4.066406 -0.25 -4.640625 C 0.113281 -5.640625 0.570312 -6.410156 1.125 -6.953125 C 1.675781 -7.492188 2.195312 -7.679688 2.6875 -7.515625 C 2.78125 -7.503906 2.910156 -7.425781 3.078125 -7.28125 C 3.253906 -7.132812 3.382812 -6.890625 3.46875 -6.546875 C 3.5625 -6.203125 3.519531 -5.703125 3.34375 -5.046875 C 3.300781 -4.898438 3.222656 -4.789062 3.109375 -4.71875 C 2.992188 -4.644531 2.863281 -4.628906 2.71875 -4.671875 C 2.570312 -4.703125 2.460938 -4.78125 2.390625 -4.90625 C 2.316406 -5.039062 2.296875 -5.171875 2.328125 -5.296875 C 2.441406 -5.734375 2.484375 -6.046875 2.453125 -6.234375 C 2.429688 -6.421875 2.398438 -6.523438 2.359375 -6.546875 C 2.285156 -6.546875 2.078125 -6.394531 1.734375 -6.09375 C 1.390625 -5.800781 1.054688 -5.191406 0.734375 -4.265625 C 0.410156 -3.410156 0.234375 -2.546875 0.203125 -1.671875 C 0.171875 -0.796875 0.289062 -0.113281 0.5625 0.375 C 0.75 0.71875 1.015625 0.925781 1.359375 1 C 1.847656 1.113281 2.398438 0.945312 3.015625 0.5 C 3.628906 0.0625 4.25 -0.53125 4.875 -1.28125 C 5.5 -2.039062 6.101562 -2.84375 6.6875 -3.6875 C 7.28125 -4.539062 7.800781 -5.320312 8.25 -6.03125 C 8.320312 -6.132812 8.429688 -6.203125 8.578125 -6.234375 C 8.722656 -6.273438 8.859375 -6.253906 8.984375 -6.171875 Z M 8.984375 -6.171875 "/></g></g></g><g fill="#8f5d46" fill-opacity="1"><g transform="translate(56.530837, 27.960707)"><g><path d="M 9.828125 -5.921875 C 9.953125 -5.828125 10.023438 -5.707031 10.046875 -5.5625 C 10.066406 -5.414062 10.03125 -5.289062 9.9375 -5.1875 C 9.46875 -4.59375 8.921875 -4.054688 8.296875 -3.578125 C 7.671875 -3.109375 7.019531 -2.757812 6.34375 -2.53125 C 5.664062 -2.3125 5.007812 -2.273438 4.375 -2.421875 C 4.113281 -1.785156 3.753906 -1.296875 3.296875 -0.953125 C 2.835938 -0.609375 2.375 -0.4375 1.90625 -0.4375 C 1.90625 -0.4375 1.898438 -0.4375 1.890625 -0.4375 C 1.878906 -0.4375 1.875 -0.4375 1.875 -0.4375 C 1.382812 -0.457031 0.953125 -0.625 0.578125 -0.9375 C 0.210938 -1.25 -0.0390625 -1.6875 -0.1875 -2.25 C -0.351562 -2.882812 -0.378906 -3.488281 -0.265625 -4.0625 C -0.160156 -4.632812 0.0351562 -5.132812 0.328125 -5.5625 C 0.617188 -6 0.941406 -6.335938 1.296875 -6.578125 C 1.429688 -6.660156 1.578125 -6.675781 1.734375 -6.625 C 1.898438 -7.019531 2.128906 -7.328125 2.421875 -7.546875 C 2.722656 -7.765625 3.039062 -7.847656 3.375 -7.796875 C 3.570312 -7.753906 3.785156 -7.628906 4.015625 -7.421875 C 4.253906 -7.210938 4.445312 -6.84375 4.59375 -6.3125 C 4.738281 -5.78125 4.78125 -5 4.71875 -3.96875 C 4.707031 -3.78125 4.679688 -3.597656 4.640625 -3.421875 C 5.128906 -3.328125 5.644531 -3.378906 6.1875 -3.578125 C 6.726562 -3.785156 7.253906 -4.09375 7.765625 -4.5 C 8.273438 -4.90625 8.71875 -5.351562 9.09375 -5.84375 C 9.1875 -5.945312 9.304688 -6.007812 9.453125 -6.03125 C 9.597656 -6.050781 9.722656 -6.015625 9.828125 -5.921875 Z M 1.90625 -1.5 C 2.132812 -1.5 2.394531 -1.601562 2.6875 -1.8125 C 2.976562 -2.03125 3.210938 -2.359375 3.390625 -2.796875 C 2.742188 -3.160156 2.28125 -3.578125 2 -4.046875 C 1.71875 -4.515625 1.566406 -4.984375 1.546875 -5.453125 C 1.171875 -5.097656 0.921875 -4.640625 0.796875 -4.078125 C 0.679688 -3.515625 0.6875 -3.003906 0.8125 -2.546875 C 0.863281 -2.347656 0.972656 -2.125 1.140625 -1.875 C 1.304688 -1.625 1.5625 -1.5 1.90625 -1.5 Z M 3.671875 -4.015625 C 3.703125 -4.742188 3.6875 -5.304688 3.625 -5.703125 C 3.5625 -6.097656 3.484375 -6.367188 3.390625 -6.515625 C 3.304688 -6.660156 3.242188 -6.742188 3.203125 -6.765625 C 3.179688 -6.765625 3.171875 -6.765625 3.171875 -6.765625 C 3.117188 -6.765625 3.035156 -6.707031 2.921875 -6.59375 C 2.816406 -6.488281 2.726562 -6.328125 2.65625 -6.109375 C 2.550781 -5.765625 2.5625 -5.390625 2.6875 -4.984375 C 2.8125 -4.578125 3.140625 -4.203125 3.671875 -3.859375 C 3.671875 -3.910156 3.671875 -3.960938 3.671875 -4.015625 Z M 3.671875 -4.015625 "/></g></g></g><g fill="#8f5d46" fill-opacity="1"><g transform="translate(65.221492, 27.960707)"><g><path d="M 11.921875 -6.171875 C 12.046875 -6.097656 12.132812 -5.992188 12.1875 -5.859375 C 12.25 -5.722656 12.242188 -5.585938 12.171875 -5.453125 C 11.828125 -4.710938 11.40625 -3.878906 10.90625 -2.953125 C 10.40625 -2.035156 9.875 -1.109375 9.3125 -0.171875 C 8.75 0.753906 8.175781 1.601562 7.59375 2.375 C 7.019531 3.144531 6.460938 3.769531 5.921875 4.25 C 5.378906 4.726562 4.890625 4.96875 4.453125 4.96875 C 4.328125 4.96875 4.207031 4.941406 4.09375 4.890625 C 3.71875 4.742188 3.46875 4.398438 3.34375 3.859375 C 3.226562 3.316406 3.242188 2.535156 3.390625 1.515625 C 3.648438 -0.304688 4.320312 -2.894531 5.40625 -6.25 C 5.382812 -6.25 5.367188 -6.242188 5.359375 -6.234375 C 5.347656 -6.222656 5.335938 -6.21875 5.328125 -6.21875 C 4.960938 -5.96875 4.523438 -5.707031 4.015625 -5.4375 C 3.515625 -5.164062 2.988281 -4.984375 2.4375 -4.890625 C 1.894531 -4.796875 1.378906 -4.910156 0.890625 -5.234375 C 0.203125 -5.722656 -0.144531 -6.398438 -0.15625 -7.265625 C -0.175781 -8.140625 0.144531 -9.09375 0.8125 -10.125 C 1.03125 -10.457031 1.316406 -10.820312 1.671875 -11.21875 C 2.023438 -11.613281 2.394531 -11.921875 2.78125 -12.140625 C 3.175781 -12.359375 3.523438 -12.367188 3.828125 -12.171875 C 3.992188 -12.078125 4.113281 -11.921875 4.1875 -11.703125 C 4.269531 -11.484375 4.265625 -11.144531 4.171875 -10.6875 C 4.085938 -10.238281 3.875 -9.632812 3.53125 -8.875 C 3.1875 -8.113281 2.671875 -7.128906 1.984375 -5.921875 C 2.398438 -5.867188 2.863281 -5.984375 3.375 -6.265625 C 3.894531 -6.554688 4.351562 -6.832031 4.75 -7.09375 C 5.132812 -7.34375 5.453125 -7.523438 5.703125 -7.640625 C 5.953125 -7.765625 6.1875 -7.742188 6.40625 -7.578125 C 6.601562 -7.410156 6.679688 -7.207031 6.640625 -6.96875 C 6.609375 -6.738281 6.578125 -6.5625 6.546875 -6.4375 C 5.953125 -4.550781 5.488281 -2.984375 5.15625 -1.734375 C 4.832031 -0.484375 4.609375 0.519531 4.484375 1.28125 C 4.367188 2.039062 4.3125 2.609375 4.3125 2.984375 C 4.3125 3.367188 4.335938 3.617188 4.390625 3.734375 C 4.453125 3.847656 4.484375 3.914062 4.484375 3.9375 C 4.703125 3.96875 5.148438 3.617188 5.828125 2.890625 C 6.503906 2.160156 7.3125 1.054688 8.25 -0.421875 C 9.195312 -1.898438 10.1875 -3.722656 11.21875 -5.890625 C 11.289062 -6.035156 11.394531 -6.128906 11.53125 -6.171875 C 11.664062 -6.222656 11.796875 -6.222656 11.921875 -6.171875 Z M 0.984375 -8.015625 C 0.867188 -7.628906 0.832031 -7.3125 0.875 -7.0625 C 0.925781 -6.820312 1 -6.628906 1.09375 -6.484375 C 1.664062 -7.503906 2.097656 -8.328125 2.390625 -8.953125 C 2.691406 -9.585938 2.894531 -10.078125 3 -10.421875 C 3.113281 -10.765625 3.179688 -11.007812 3.203125 -11.15625 C 3.003906 -11.050781 2.753906 -10.84375 2.453125 -10.53125 C 2.160156 -10.226562 1.875 -9.859375 1.59375 -9.421875 C 1.3125 -8.984375 1.109375 -8.515625 0.984375 -8.015625 Z M 0.984375 -8.015625 "/></g></g></g><g fill="#8f5d46" fill-opacity="1"><g transform="translate(76.057649, 27.960707)"><g><path d="M 11.375 -6.03125 C 11.5 -5.976562 11.582031 -5.882812 11.625 -5.75 C 11.675781 -5.613281 11.675781 -5.476562 11.625 -5.34375 C 11.28125 -4.644531 10.90625 -3.941406 10.5 -3.234375 C 10.09375 -2.523438 9.664062 -1.875 9.21875 -1.28125 C 8.769531 -0.695312 8.3125 -0.226562 7.84375 0.125 C 7.375 0.476562 6.90625 0.65625 6.4375 0.65625 C 6.34375 0.65625 6.242188 0.644531 6.140625 0.625 C 4.921875 0.382812 4.171875 -1.242188 3.890625 -4.265625 C 3.578125 -3.847656 3.21875 -3.378906 2.8125 -2.859375 C 2.40625 -2.347656 1.972656 -1.835938 1.515625 -1.328125 C 1.441406 -1.253906 1.320312 -1.140625 1.15625 -0.984375 C 1 -0.835938 0.8125 -0.71875 0.59375 -0.625 C 0.375 -0.53125 0.160156 -0.539062 -0.046875 -0.65625 C -0.484375 -0.8125 -0.691406 -1.28125 -0.671875 -2.0625 C -0.671875 -2.519531 -0.582031 -3.082031 -0.40625 -3.75 C -0.238281 -4.414062 0 -5.085938 0.3125 -5.765625 C 0.625 -6.453125 0.992188 -7.054688 1.421875 -7.578125 C 1.847656 -8.097656 2.320312 -8.453125 2.84375 -8.640625 C 3.175781 -8.765625 3.578125 -8.785156 4.046875 -8.703125 C 4.515625 -8.617188 5.003906 -8.28125 5.515625 -7.6875 C 5.609375 -7.570312 5.648438 -7.441406 5.640625 -7.296875 C 5.628906 -7.160156 5.566406 -7.046875 5.453125 -6.953125 C 5.347656 -6.859375 5.222656 -6.816406 5.078125 -6.828125 C 4.929688 -6.835938 4.8125 -6.894531 4.71875 -7 C 4.289062 -7.507812 3.914062 -7.75 3.59375 -7.71875 C 3.28125 -7.695312 3.015625 -7.601562 2.796875 -7.4375 C 2.398438 -7.144531 2.035156 -6.726562 1.703125 -6.1875 C 1.378906 -5.644531 1.109375 -5.070312 0.890625 -4.46875 C 0.671875 -3.875 0.515625 -3.316406 0.421875 -2.796875 C 0.335938 -2.285156 0.316406 -1.914062 0.359375 -1.6875 C 0.410156 -1.71875 0.46875 -1.757812 0.53125 -1.8125 C 0.59375 -1.875 0.660156 -1.945312 0.734375 -2.03125 C 1.273438 -2.632812 1.769531 -3.226562 2.21875 -3.8125 C 2.675781 -4.40625 3.066406 -4.925781 3.390625 -5.375 C 3.484375 -5.5 3.570312 -5.617188 3.65625 -5.734375 C 3.738281 -5.859375 3.816406 -5.96875 3.890625 -6.0625 C 4.023438 -6.238281 4.210938 -6.289062 4.453125 -6.21875 C 4.691406 -6.164062 4.816406 -6.007812 4.828125 -5.75 C 4.890625 -4.570312 4.988281 -3.625 5.125 -2.90625 C 5.257812 -2.195312 5.40625 -1.664062 5.5625 -1.3125 C 5.726562 -0.957031 5.882812 -0.71875 6.03125 -0.59375 C 6.175781 -0.46875 6.285156 -0.40625 6.359375 -0.40625 C 6.703125 -0.332031 7.253906 -0.6875 8.015625 -1.46875 C 8.773438 -2.25 9.660156 -3.6875 10.671875 -5.78125 C 10.742188 -5.925781 10.847656 -6.019531 10.984375 -6.0625 C 11.117188 -6.113281 11.25 -6.101562 11.375 -6.03125 Z M 11.375 -6.03125 "/></g></g></g></g></g></g><g transform="matrix(1, 0, 0, 1, 91, 28)"><g clip-path="url(#49a99e708c)"><g clip-path="url(#703281793e)"><g fill="#8f5d46" fill-opacity="1"><g transform="translate(0.178147, 7.49969)"><g><path d="M 1.71875 -5.546875 L 1.71875 -3.109375 L 3.1875 -3.109375 C 3.40625 -3.109375 3.546875 -3.140625 3.609375 -3.203125 C 3.679688 -3.273438 3.71875 -3.328125 3.71875 -3.359375 L 3.71875 -2.53125 C 3.71875 -2.539062 3.703125 -2.5625 3.671875 -2.59375 C 3.648438 -2.632812 3.601562 -2.675781 3.53125 -2.71875 C 3.457031 -2.757812 3.34375 -2.78125 3.1875 -2.78125 L 1.71875 -2.78125 L 1.71875 -0.796875 C 1.71875 -0.578125 1.742188 -0.40625 1.796875 -0.28125 C 1.859375 -0.164062 1.921875 -0.0859375 1.984375 -0.046875 C 2.054688 -0.00390625 2.09375 0.0078125 2.09375 0 L 0.734375 0 C 0.734375 0.0078125 0.765625 -0.00390625 0.828125 -0.046875 C 0.898438 -0.0859375 0.960938 -0.164062 1.015625 -0.28125 C 1.066406 -0.394531 1.09375 -0.566406 1.09375 -0.796875 L 1.09375 -5.046875 C 1.09375 -5.285156 1.066406 -5.460938 1.015625 -5.578125 C 0.960938 -5.703125 0.898438 -5.789062 0.828125 -5.84375 C 0.765625 -5.894531 0.734375 -5.910156 0.734375 -5.890625 L 3.828125 -5.890625 L 3.828125 -5.015625 C 3.796875 -5.148438 3.710938 -5.269531 3.578125 -5.375 C 3.453125 -5.488281 3.269531 -5.546875 3.03125 -5.546875 Z M 1.71875 -5.546875 "/></g></g></g></g><g fill="#8f5d46" fill-opacity="1"><g transform="translate(6.450009, 7.49969)"><g><path d="M 0.734375 0 C 0.734375 0.0195312 0.765625 0.0078125 0.828125 -0.03125 C 0.898438 -0.0820312 0.960938 -0.171875 1.015625 -0.296875 C 1.066406 -0.421875 1.09375 -0.609375 1.09375 -0.859375 L 1.09375 -5.0625 C 1.09375 -5.289062 1.066406 -5.46875 1.015625 -5.59375 C 0.960938 -5.71875 0.898438 -5.800781 0.828125 -5.84375 C 0.765625 -5.894531 0.734375 -5.910156 0.734375 -5.890625 L 3.828125 -5.890625 L 3.828125 -5.03125 C 3.722656 -5.375 3.414062 -5.546875 2.90625 -5.546875 L 1.71875 -5.546875 L 1.71875 -3.109375 L 3.1875 -3.109375 C 3.300781 -3.109375 3.394531 -3.128906 3.46875 -3.171875 C 3.550781 -3.210938 3.613281 -3.25 3.65625 -3.28125 C 3.695312 -3.320312 3.71875 -3.347656 3.71875 -3.359375 L 3.71875 -2.53125 C 3.71875 -2.539062 3.695312 -2.566406 3.65625 -2.609375 C 3.613281 -2.648438 3.550781 -2.6875 3.46875 -2.71875 C 3.394531 -2.757812 3.300781 -2.78125 3.1875 -2.78125 L 1.71875 -2.78125 L 1.71875 -0.34375 L 3.046875 -0.34375 C 3.304688 -0.34375 3.523438 -0.394531 3.703125 -0.5 C 3.890625 -0.601562 4.023438 -0.738281 4.109375 -0.90625 L 3.953125 0 Z M 0.734375 0 "/></g></g></g><g fill="#8f5d46" fill-opacity="1"><g transform="translate(12.995568, 7.49969)"><g><path d="M 5.6875 0 C 5.75 -0.0078125 5.820312 -0.0664062 5.90625 -0.171875 C 5.988281 -0.285156 6.03125 -0.5 6.03125 -0.8125 L 6.03125 -5.09375 L 3.78125 0.09375 L 1.5 -5.078125 L 1.5 -0.84375 C 1.5 -0.539062 1.550781 -0.328125 1.65625 -0.203125 C 1.757812 -0.078125 1.847656 -0.0078125 1.921875 0 L 0.65625 0 C 0.738281 -0.0078125 0.832031 -0.0703125 0.9375 -0.1875 C 1.039062 -0.3125 1.09375 -0.53125 1.09375 -0.84375 L 1.09375 -5.140625 C 1.09375 -5.410156 1.046875 -5.597656 0.953125 -5.703125 C 0.859375 -5.804688 0.757812 -5.867188 0.65625 -5.890625 L 1.8125 -5.890625 L 3.90625 -1.109375 L 5.984375 -5.890625 L 7.015625 -5.890625 C 6.941406 -5.878906 6.859375 -5.816406 6.765625 -5.703125 C 6.679688 -5.597656 6.640625 -5.398438 6.640625 -5.109375 L 6.640625 -0.765625 C 6.640625 -0.484375 6.679688 -0.285156 6.765625 -0.171875 C 6.859375 -0.0664062 6.941406 -0.0078125 7.015625 0 Z M 5.6875 0 "/></g></g></g><g fill="#8f5d46" fill-opacity="1"><g transform="translate(22.62016, 7.49969)"><g><path d="M 0.734375 0 C 0.734375 0.0195312 0.765625 0.0078125 0.828125 -0.03125 C 0.898438 -0.0820312 0.960938 -0.171875 1.015625 -0.296875 C 1.066406 -0.421875 1.09375 -0.609375 1.09375 -0.859375 L 1.09375 -5.0625 C 1.09375 -5.289062 1.066406 -5.46875 1.015625 -5.59375 C 0.960938 -5.71875 0.898438 -5.800781 0.828125 -5.84375 C 0.765625 -5.894531 0.734375 -5.910156 0.734375 -5.890625 L 3.828125 -5.890625 L 3.828125 -5.03125 C 3.722656 -5.375 3.414062 -5.546875 2.90625 -5.546875 L 1.71875 -5.546875 L 1.71875 -3.109375 L 3.1875 -3.109375 C 3.300781 -3.109375 3.394531 -3.128906 3.46875 -3.171875 C 3.550781 -3.210938 3.613281 -3.25 3.65625 -3.28125 C 3.695312 -3.320312 3.71875 -3.347656 3.71875 -3.359375 L 3.71875 -2.53125 C 3.71875 -2.539062 3.695312 -2.566406 3.65625 -2.609375 C 3.613281 -2.648438 3.550781 -2.6875 3.46875 -2.71875 C 3.394531 -2.757812 3.300781 -2.78125 3.1875 -2.78125 L 1.71875 -2.78125 L 1.71875 -0.34375 L 3.046875 -0.34375 C 3.304688 -0.34375 3.523438 -0.394531 3.703125 -0.5 C 3.890625 -0.601562 4.023438 -0.738281 4.109375 -0.90625 L 3.953125 0 Z M 0.734375 0 "/></g></g></g><g fill="#8f5d46" fill-opacity="1"><g transform="translate(29.165719, 7.49969)"><g><path d="M 6.234375 -5.890625 C 6.160156 -5.867188 6.082031 -5.800781 6 -5.6875 C 5.925781 -5.582031 5.890625 -5.390625 5.890625 -5.109375 L 5.890625 0.234375 L 1.5 -4.875 L 1.5 -0.765625 C 1.5 -0.492188 1.546875 -0.300781 1.640625 -0.1875 C 1.742188 -0.0820312 1.84375 -0.0195312 1.9375 0 L 0.734375 0 C 0.804688 -0.0195312 0.882812 -0.0820312 0.96875 -0.1875 C 1.050781 -0.300781 1.09375 -0.5 1.09375 -0.78125 L 1.09375 -5.0625 C 1.09375 -5.257812 1.023438 -5.4375 0.890625 -5.59375 C 0.765625 -5.75 0.601562 -5.847656 0.40625 -5.890625 L 1.46875 -5.890625 L 5.484375 -1.203125 L 5.484375 -5.109375 C 5.484375 -5.546875 5.332031 -5.804688 5.03125 -5.890625 Z M 6.234375 -5.890625 "/></g></g></g><g fill="#8f5d46" fill-opacity="1"><g transform="translate(38.037659, 7.49969)"><g><path d="M 0.71875 0 C 0.71875 0.0195312 0.75 0.0078125 0.8125 -0.03125 C 0.882812 -0.0820312 0.945312 -0.164062 1 -0.28125 C 1.0625 -0.394531 1.09375 -0.566406 1.09375 -0.796875 L 1.09375 -5.09375 C 1.09375 -5.320312 1.066406 -5.492188 1.015625 -5.609375 C 0.960938 -5.722656 0.898438 -5.800781 0.828125 -5.84375 C 0.765625 -5.882812 0.734375 -5.898438 0.734375 -5.890625 L 2.09375 -5.890625 C 2.09375 -5.898438 2.054688 -5.882812 1.984375 -5.84375 C 1.921875 -5.800781 1.859375 -5.722656 1.796875 -5.609375 C 1.742188 -5.492188 1.71875 -5.320312 1.71875 -5.09375 L 1.71875 -0.796875 C 1.71875 -0.566406 1.742188 -0.394531 1.796875 -0.28125 C 1.859375 -0.164062 1.921875 -0.0859375 1.984375 -0.046875 C 2.054688 -0.00390625 2.09375 0.0078125 2.09375 0 Z M 0.71875 0 "/></g></g></g><g fill="#8f5d46" fill-opacity="1"><g transform="translate(42.7358, 7.49969)"><g><path d="M 6.234375 -5.890625 C 6.160156 -5.867188 6.082031 -5.800781 6 -5.6875 C 5.925781 -5.582031 5.890625 -5.390625 5.890625 -5.109375 L 5.890625 0.234375 L 1.5 -4.875 L 1.5 -0.765625 C 1.5 -0.492188 1.546875 -0.300781 1.640625 -0.1875 C 1.742188 -0.0820312 1.84375 -0.0195312 1.9375 0 L 0.734375 0 C 0.804688 -0.0195312 0.882812 -0.0820312 0.96875 -0.1875 C 1.050781 -0.300781 1.09375 -0.5 1.09375 -0.78125 L 1.09375 -5.0625 C 1.09375 -5.257812 1.023438 -5.4375 0.890625 -5.59375 C 0.765625 -5.75 0.601562 -5.847656 0.40625 -5.890625 L 1.46875 -5.890625 L 5.484375 -1.203125 L 5.484375 -5.109375 C 5.484375 -5.546875 5.332031 -5.804688 5.03125 -5.890625 Z M 6.234375 -5.890625 "/></g></g></g><g fill="#8f5d46" fill-opacity="1"><g transform="translate(51.60774, 7.49969)"><g><path d="M 1.8125 -2.28125 L 1.265625 -0.921875 C 1.171875 -0.710938 1.125 -0.539062 1.125 -0.40625 C 1.125 -0.21875 1.210938 -0.0820312 1.390625 0 L 0.15625 0 C 0.21875 0 0.300781 -0.0546875 0.40625 -0.171875 C 0.519531 -0.285156 0.644531 -0.507812 0.78125 -0.84375 L 3.015625 -6.171875 L 5.234375 -0.828125 C 5.359375 -0.515625 5.476562 -0.300781 5.59375 -0.1875 C 5.71875 -0.0703125 5.8125 -0.0078125 5.875 0 L 4.46875 0 C 4.601562 -0.0703125 4.671875 -0.175781 4.671875 -0.3125 C 4.671875 -0.4375 4.625 -0.609375 4.53125 -0.828125 L 3.9375 -2.28125 Z M 3.796875 -2.640625 L 2.875 -4.921875 L 1.953125 -2.640625 Z M 3.796875 -2.640625 "/></g></g></g></g></g><g clip-path="url(#860f2b435a)"><g transform="matrix(1, 0, 0, 1, 14, 52)"><g clip-path="url(#6bbcef7a5e)"><g clip-path="url(#6ead90a117)"><g fill="#f1eee9" fill-opacity="1"><g transform="translate(0.722223, 6.584188)"><g><path d="M 5.453125 -0.515625 C 5.234375 -0.335938 4.945312 -0.1875 4.59375 -0.0625 C 4.25 0.0507812 3.898438 0.109375 3.546875 0.109375 C 3.015625 0.109375 2.519531 -0.015625 2.0625 -0.265625 C 1.601562 -0.515625 1.234375 -0.867188 0.953125 -1.328125 C 0.679688 -1.785156 0.546875 -2.328125 0.546875 -2.953125 C 0.546875 -3.535156 0.671875 -4.054688 0.921875 -4.515625 C 1.179688 -4.984375 1.546875 -5.347656 2.015625 -5.609375 C 2.484375 -5.867188 3.035156 -6 3.671875 -6 C 4.335938 -6 4.929688 -5.851562 5.453125 -5.5625 L 5.453125 -4.609375 C 5.273438 -4.921875 5.015625 -5.171875 4.671875 -5.359375 C 4.335938 -5.546875 3.976562 -5.640625 3.59375 -5.640625 C 3.113281 -5.640625 2.691406 -5.523438 2.328125 -5.296875 C 1.972656 -5.066406 1.703125 -4.753906 1.515625 -4.359375 C 1.328125 -3.960938 1.234375 -3.515625 1.234375 -3.015625 C 1.234375 -2.460938 1.335938 -1.976562 1.546875 -1.5625 C 1.765625 -1.15625 2.054688 -0.84375 2.421875 -0.625 C 2.785156 -0.40625 3.191406 -0.296875 3.640625 -0.296875 C 4.367188 -0.296875 4.972656 -0.507812 5.453125 -0.9375 Z M 5.453125 -0.515625 "/></g></g></g></g><g clip-path="url(#4db74d724e)"><g fill="#f1eee9" fill-opacity="1"><g transform="translate(8.780936, 6.584188)"><g><path d="M 2.453125 -2.96875 C 2.710938 -2.96875 2.9375 -3.023438 3.125 -3.140625 C 3.320312 -3.265625 3.46875 -3.425781 3.5625 -3.625 C 3.664062 -3.820312 3.71875 -4.03125 3.71875 -4.25 C 3.71875 -4.46875 3.671875 -4.675781 3.578125 -4.875 C 3.484375 -5.070312 3.335938 -5.234375 3.140625 -5.359375 C 2.953125 -5.484375 2.71875 -5.546875 2.4375 -5.546875 L 1.71875 -5.546875 L 1.71875 -0.78125 C 1.71875 -0.550781 1.742188 -0.378906 1.796875 -0.265625 C 1.859375 -0.148438 1.921875 -0.0703125 1.984375 -0.03125 C 2.054688 0 2.09375 0.0078125 2.09375 0 L 0.734375 0 C 0.734375 0.0078125 0.765625 -0.00390625 0.828125 -0.046875 C 0.898438 -0.0859375 0.960938 -0.160156 1.015625 -0.265625 C 1.066406 -0.378906 1.09375 -0.550781 1.09375 -0.78125 L 1.09375 -5.0625 C 1.09375 -5.300781 1.066406 -5.476562 1.015625 -5.59375 C 0.960938 -5.71875 0.898438 -5.800781 0.828125 -5.84375 C 0.765625 -5.894531 0.734375 -5.910156 0.734375 -5.890625 L 2.421875 -5.890625 C 2.867188 -5.890625 3.234375 -5.816406 3.515625 -5.671875 C 3.804688 -5.523438 4.015625 -5.335938 4.140625 -5.109375 C 4.273438 -4.878906 4.34375 -4.625 4.34375 -4.34375 C 4.34375 -4.113281 4.285156 -3.890625 4.171875 -3.671875 C 4.066406 -3.453125 3.910156 -3.257812 3.703125 -3.09375 C 3.503906 -2.9375 3.269531 -2.828125 3 -2.765625 L 2.875 -2.734375 L 4.375 -0.828125 C 4.570312 -0.597656 4.734375 -0.421875 4.859375 -0.296875 C 4.992188 -0.179688 5.09375 -0.101562 5.15625 -0.0625 C 5.21875 -0.03125 5.253906 -0.0078125 5.265625 0 L 4.265625 0 L 1.9375 -2.96875 Z M 2.453125 -2.96875 "/></g></g></g></g><g clip-path="url(#808a853ac1)"><g fill="#f1eee9" fill-opacity="1"><g transform="translate(16.12027, 6.584188)"><g><path d="M 0.734375 0 C 0.734375 0.0195312 0.765625 0.0078125 0.828125 -0.03125 C 0.898438 -0.0820312 0.960938 -0.171875 1.015625 -0.296875 C 1.066406 -0.421875 1.09375 -0.609375 1.09375 -0.859375 L 1.09375 -5.0625 C 1.09375 -5.289062 1.066406 -5.46875 1.015625 -5.59375 C 0.960938 -5.71875 0.898438 -5.800781 0.828125 -5.84375 C 0.765625 -5.894531 0.734375 -5.910156 0.734375 -5.890625 L 3.828125 -5.890625 L 3.828125 -5.03125 C 3.722656 -5.375 3.414062 -5.546875 2.90625 -5.546875 L 1.71875 -5.546875 L 1.71875 -3.109375 L 3.1875 -3.109375 C 3.300781 -3.109375 3.394531 -3.128906 3.46875 -3.171875 C 3.550781 -3.210938 3.613281 -3.25 3.65625 -3.28125 C 3.695312 -3.320312 3.71875 -3.347656 3.71875 -3.359375 L 3.71875 -2.53125 C 3.71875 -2.539062 3.695312 -2.566406 3.65625 -2.609375 C 3.613281 -2.648438 3.550781 -2.6875 3.46875 -2.71875 C 3.394531 -2.757812 3.300781 -2.78125 3.1875 -2.78125 L 1.71875 -2.78125 L 1.71875 -0.34375 L 3.046875 -0.34375 C 3.304688 -0.34375 3.523438 -0.394531 3.703125 -0.5 C 3.890625 -0.601562 4.023438 -0.738281 4.109375 -0.90625 L 3.953125 0 Z M 0.734375 0 "/></g></g></g></g><g clip-path="url(#a37285e9a1)"><g fill="#f1eee9" fill-opacity="1"><g transform="translate(22.671718, 6.584188)"><g><path d="M 1.8125 -2.28125 L 1.265625 -0.921875 C 1.171875 -0.710938 1.125 -0.539062 1.125 -0.40625 C 1.125 -0.21875 1.210938 -0.0820312 1.390625 0 L 0.15625 0 C 0.21875 0 0.300781 -0.0546875 0.40625 -0.171875 C 0.519531 -0.285156 0.644531 -0.507812 0.78125 -0.84375 L 3.015625 -6.171875 L 5.234375 -0.828125 C 5.359375 -0.515625 5.476562 -0.300781 5.59375 -0.1875 C 5.71875 -0.0703125 5.8125 -0.0078125 5.875 0 L 4.46875 0 C 4.601562 -0.0703125 4.671875 -0.175781 4.671875 -0.3125 C 4.671875 -0.4375 4.625 -0.609375 4.53125 -0.828125 L 3.9375 -2.28125 Z M 3.796875 -2.640625 L 2.875 -4.921875 L 1.953125 -2.640625 Z M 3.796875 -2.640625 "/></g></g></g></g><g clip-path="url(#1e9193a70a)"><g fill="#f1eee9" fill-opacity="1"><g transform="translate(30.593407, 6.584188)"><g><path d="M 6.234375 -5.890625 C 6.160156 -5.867188 6.082031 -5.800781 6 -5.6875 C 5.925781 -5.582031 5.890625 -5.390625 5.890625 -5.109375 L 5.890625 0.234375 L 1.5 -4.875 L 1.5 -0.765625 C 1.5 -0.492188 1.546875 -0.300781 1.640625 -0.1875 C 1.742188 -0.0820312 1.84375 -0.0195312 1.9375 0 L 0.734375 0 C 0.804688 -0.0195312 0.882812 -0.0820312 0.96875 -0.1875 C 1.050781 -0.300781 1.09375 -0.5 1.09375 -0.78125 L 1.09375 -5.0625 C 1.09375 -5.257812 1.023438 -5.4375 0.890625 -5.59375 C 0.765625 -5.75 0.601562 -5.847656 0.40625 -5.890625 L 1.46875 -5.890625 L 5.484375 -1.203125 L 5.484375 -5.109375 C 5.484375 -5.546875 5.332031 -5.804688 5.03125 -5.890625 Z M 6.234375 -5.890625 "/></g></g></g></g><g clip-path="url(#a8546a19e4)"><g fill="#f1eee9" fill-opacity="1"><g transform="translate(39.474265, 6.584188)"><g><path d="M 4.5625 -0.484375 C 4.03125 -0.160156 3.316406 0 2.421875 0 L 0.734375 0 C 0.734375 0.0195312 0.765625 0.00390625 0.828125 -0.046875 C 0.898438 -0.0976562 0.960938 -0.1875 1.015625 -0.3125 C 1.066406 -0.445312 1.09375 -0.640625 1.09375 -0.890625 L 1.09375 -5.109375 C 1.09375 -5.328125 1.066406 -5.492188 1.015625 -5.609375 C 0.960938 -5.722656 0.898438 -5.800781 0.828125 -5.84375 C 0.765625 -5.882812 0.734375 -5.898438 0.734375 -5.890625 L 2.40625 -5.890625 C 3.28125 -5.890625 3.972656 -5.75 4.484375 -5.46875 C 4.929688 -5.21875 5.273438 -4.875 5.515625 -4.4375 C 5.765625 -4.007812 5.890625 -3.53125 5.890625 -3 C 5.890625 -2.414062 5.773438 -1.910156 5.546875 -1.484375 C 5.316406 -1.054688 4.988281 -0.722656 4.5625 -0.484375 Z M 4.234375 -5.078125 C 3.984375 -5.242188 3.710938 -5.363281 3.421875 -5.4375 C 3.140625 -5.507812 2.800781 -5.546875 2.40625 -5.546875 L 1.71875 -5.546875 L 1.71875 -0.34375 L 2.40625 -0.34375 C 2.875 -0.34375 3.253906 -0.378906 3.546875 -0.453125 C 3.847656 -0.535156 4.109375 -0.660156 4.328125 -0.828125 C 4.609375 -1.046875 4.820312 -1.328125 4.96875 -1.671875 C 5.125 -2.023438 5.203125 -2.4375 5.203125 -2.90625 C 5.203125 -3.40625 5.113281 -3.84375 4.9375 -4.21875 C 4.769531 -4.59375 4.535156 -4.878906 4.234375 -5.078125 Z M 4.234375 -5.078125 "/></g></g></g></g><g clip-path="url(#63972da894)"><g fill="#f1eee9" fill-opacity="1"><g transform="translate(47.875544, 6.584188)"><g><path d="M 0.546875 -2.875 C 0.546875 -3.476562 0.675781 -4.015625 0.9375 -4.484375 C 1.195312 -4.960938 1.5625 -5.332031 2.03125 -5.59375 C 2.5 -5.863281 3.046875 -6 3.671875 -6 C 4.179688 -6 4.660156 -5.882812 5.109375 -5.65625 C 5.554688 -5.425781 5.914062 -5.085938 6.1875 -4.640625 C 6.457031 -4.191406 6.59375 -3.648438 6.59375 -3.015625 C 6.59375 -2.410156 6.460938 -1.867188 6.203125 -1.390625 C 5.941406 -0.921875 5.578125 -0.550781 5.109375 -0.28125 C 4.640625 -0.0195312 4.09375 0.109375 3.46875 0.109375 C 2.957031 0.109375 2.476562 -0.00390625 2.03125 -0.234375 C 1.582031 -0.460938 1.222656 -0.800781 0.953125 -1.25 C 0.679688 -1.695312 0.546875 -2.238281 0.546875 -2.875 Z M 5.90625 -2.890625 C 5.90625 -3.410156 5.796875 -3.878906 5.578125 -4.296875 C 5.367188 -4.710938 5.078125 -5.039062 4.703125 -5.28125 C 4.328125 -5.519531 3.90625 -5.640625 3.4375 -5.640625 C 3.007812 -5.640625 2.628906 -5.53125 2.296875 -5.3125 C 1.960938 -5.09375 1.703125 -4.785156 1.515625 -4.390625 C 1.328125 -3.992188 1.234375 -3.53125 1.234375 -3 C 1.234375 -2.476562 1.335938 -2.007812 1.546875 -1.59375 C 1.765625 -1.175781 2.0625 -0.847656 2.4375 -0.609375 C 2.8125 -0.367188 3.234375 -0.25 3.703125 -0.25 C 4.128906 -0.25 4.507812 -0.359375 4.84375 -0.578125 C 5.175781 -0.796875 5.4375 -1.101562 5.625 -1.5 C 5.8125 -1.894531 5.90625 -2.359375 5.90625 -2.890625 Z M 5.90625 -2.890625 "/></g></g></g></g><g fill="#f1eee9" fill-opacity="1"><g transform="translate(56.910555, 6.584188)"><g/></g></g><g clip-path="url(#37cdc33350)"><g fill="#f1eee9" fill-opacity="1"><g transform="translate(61.132593, 6.584188)"><g><path d="M 4.5625 0 C 4.5625 0.0195312 4.59375 0.0078125 4.65625 -0.03125 C 4.726562 -0.0820312 4.789062 -0.164062 4.84375 -0.28125 C 4.90625 -0.394531 4.9375 -0.566406 4.9375 -0.796875 L 4.9375 -2.734375 L 1.71875 -2.734375 L 1.71875 -0.796875 C 1.71875 -0.566406 1.742188 -0.394531 1.796875 -0.28125 C 1.859375 -0.164062 1.921875 -0.0859375 1.984375 -0.046875 C 2.054688 -0.00390625 2.09375 0.0078125 2.09375 0 L 0.734375 0 C 0.734375 0.0195312 0.765625 0.0078125 0.828125 -0.03125 C 0.898438 -0.0820312 0.960938 -0.164062 1.015625 -0.28125 C 1.066406 -0.394531 1.09375 -0.566406 1.09375 -0.796875 L 1.09375 -5.09375 C 1.09375 -5.320312 1.066406 -5.492188 1.015625 -5.609375 C 0.960938 -5.722656 0.898438 -5.800781 0.828125 -5.84375 C 0.765625 -5.882812 0.734375 -5.898438 0.734375 -5.890625 L 2.09375 -5.890625 C 2.09375 -5.898438 2.054688 -5.882812 1.984375 -5.84375 C 1.921875 -5.800781 1.859375 -5.722656 1.796875 -5.609375 C 1.742188 -5.492188 1.71875 -5.320312 1.71875 -5.09375 L 1.71875 -3.109375 L 4.9375 -3.109375 L 4.9375 -5.09375 C 4.9375 -5.320312 4.90625 -5.492188 4.84375 -5.609375 C 4.789062 -5.722656 4.726562 -5.800781 4.65625 -5.84375 C 4.59375 -5.882812 4.5625 -5.898438 4.5625 -5.890625 L 5.921875 -5.890625 C 5.921875 -5.910156 5.882812 -5.894531 5.8125 -5.84375 C 5.75 -5.800781 5.6875 -5.722656 5.625 -5.609375 C 5.570312 -5.492188 5.546875 -5.320312 5.546875 -5.09375 L 5.546875 -0.796875 C 5.546875 -0.566406 5.570312 -0.394531 5.625 -0.28125 C 5.6875 -0.164062 5.75 -0.0859375 5.8125 -0.046875 C 5.882812 -0.00390625 5.921875 0.0078125 5.921875 0 Z M 4.5625 0 "/></g></g></g></g><g clip-path="url(#1158b4eb1d)"><g fill="#f1eee9" fill-opacity="1"><g transform="translate(69.670896, 6.584188)"><g><path d="M 0.71875 0 C 0.71875 0.0195312 0.75 0.0078125 0.8125 -0.03125 C 0.882812 -0.0820312 0.945312 -0.164062 1 -0.28125 C 1.0625 -0.394531 1.09375 -0.566406 1.09375 -0.796875 L 1.09375 -5.09375 C 1.09375 -5.320312 1.066406 -5.492188 1.015625 -5.609375 C 0.960938 -5.722656 0.898438 -5.800781 0.828125 -5.84375 C 0.765625 -5.882812 0.734375 -5.898438 0.734375 -5.890625 L 2.09375 -5.890625 C 2.09375 -5.898438 2.054688 -5.882812 1.984375 -5.84375 C 1.921875 -5.800781 1.859375 -5.722656 1.796875 -5.609375 C 1.742188 -5.492188 1.71875 -5.320312 1.71875 -5.09375 L 1.71875 -0.796875 C 1.71875 -0.566406 1.742188 -0.394531 1.796875 -0.28125 C 1.859375 -0.164062 1.921875 -0.0859375 1.984375 -0.046875 C 2.054688 -0.00390625 2.09375 0.0078125 2.09375 0 Z M 0.71875 0 "/></g></g></g></g><g clip-path="url(#8e8b2124e1)"><g fill="#f1eee9" fill-opacity="1"><g transform="translate(74.372523, 6.584188)"><g><path d="M 2.28125 0.109375 C 1.988281 0.109375 1.703125 0.0664062 1.421875 -0.015625 C 1.148438 -0.0976562 0.90625 -0.21875 0.6875 -0.375 L 0.6875 -1.40625 C 0.84375 -1.019531 1.070312 -0.726562 1.375 -0.53125 C 1.675781 -0.332031 1.992188 -0.234375 2.328125 -0.234375 C 2.660156 -0.234375 2.9375 -0.34375 3.15625 -0.5625 C 3.382812 -0.789062 3.5 -1.066406 3.5 -1.390625 C 3.5 -1.609375 3.453125 -1.789062 3.359375 -1.9375 C 3.273438 -2.09375 3.132812 -2.238281 2.9375 -2.375 C 2.738281 -2.507812 2.460938 -2.660156 2.109375 -2.828125 C 1.617188 -3.054688 1.257812 -3.289062 1.03125 -3.53125 C 0.800781 -3.78125 0.6875 -4.082031 0.6875 -4.4375 C 0.6875 -4.738281 0.757812 -5.007812 0.90625 -5.25 C 1.050781 -5.488281 1.25 -5.671875 1.5 -5.796875 C 1.75 -5.929688 2.023438 -6 2.328125 -6 C 2.578125 -6 2.820312 -5.960938 3.0625 -5.890625 C 3.3125 -5.816406 3.546875 -5.710938 3.765625 -5.578125 L 3.765625 -4.65625 C 3.617188 -4.96875 3.40625 -5.210938 3.125 -5.390625 C 2.851562 -5.566406 2.578125 -5.65625 2.296875 -5.65625 C 1.972656 -5.65625 1.707031 -5.546875 1.5 -5.328125 C 1.300781 -5.117188 1.203125 -4.867188 1.203125 -4.578125 C 1.203125 -4.367188 1.257812 -4.1875 1.375 -4.03125 C 1.5 -3.882812 1.648438 -3.757812 1.828125 -3.65625 C 2.003906 -3.550781 2.25 -3.425781 2.5625 -3.28125 C 2.882812 -3.125 3.144531 -2.976562 3.34375 -2.84375 C 3.550781 -2.71875 3.722656 -2.546875 3.859375 -2.328125 C 3.992188 -2.117188 4.0625 -1.863281 4.0625 -1.5625 C 4.0625 -1.21875 3.976562 -0.921875 3.8125 -0.671875 C 3.65625 -0.421875 3.441406 -0.226562 3.171875 -0.09375 C 2.898438 0.0390625 2.601562 0.109375 2.28125 0.109375 Z M 2.28125 0.109375 "/></g></g></g></g><g clip-path="url(#adc12d77e1)"><g fill="#f1eee9" fill-opacity="1"><g transform="translate(80.923971, 6.584188)"><g><path d="M 1.265625 -5.546875 C 1.015625 -5.546875 0.804688 -5.492188 0.640625 -5.390625 C 0.472656 -5.296875 0.351562 -5.175781 0.28125 -5.03125 L 0.40625 -5.890625 L 4.46875 -5.890625 L 4.578125 -5.03125 C 4.503906 -5.175781 4.382812 -5.296875 4.21875 -5.390625 C 4.050781 -5.492188 3.84375 -5.546875 3.59375 -5.546875 L 2.734375 -5.546875 L 2.734375 -0.796875 C 2.734375 -0.566406 2.757812 -0.390625 2.8125 -0.265625 C 2.875 -0.148438 2.9375 -0.0703125 3 -0.03125 C 3.070312 0.0078125 3.109375 0.0195312 3.109375 0 L 1.75 0 C 1.75 0.0195312 1.78125 0.0078125 1.84375 -0.03125 C 1.914062 -0.0703125 1.976562 -0.148438 2.03125 -0.265625 C 2.09375 -0.378906 2.125 -0.554688 2.125 -0.796875 L 2.125 -5.546875 Z M 1.265625 -5.546875 "/></g></g></g></g><g clip-path="url(#fab66ce07b)"><g fill="#f1eee9" fill-opacity="1"><g transform="translate(87.680961, 6.584188)"><g><path d="M 0.546875 -2.875 C 0.546875 -3.476562 0.675781 -4.015625 0.9375 -4.484375 C 1.195312 -4.960938 1.5625 -5.332031 2.03125 -5.59375 C 2.5 -5.863281 3.046875 -6 3.671875 -6 C 4.179688 -6 4.660156 -5.882812 5.109375 -5.65625 C 5.554688 -5.425781 5.914062 -5.085938 6.1875 -4.640625 C 6.457031 -4.191406 6.59375 -3.648438 6.59375 -3.015625 C 6.59375 -2.410156 6.460938 -1.867188 6.203125 -1.390625 C 5.941406 -0.921875 5.578125 -0.550781 5.109375 -0.28125 C 4.640625 -0.0195312 4.09375 0.109375 3.46875 0.109375 C 2.957031 0.109375 2.476562 -0.00390625 2.03125 -0.234375 C 1.582031 -0.460938 1.222656 -0.800781 0.953125 -1.25 C 0.679688 -1.695312 0.546875 -2.238281 0.546875 -2.875 Z M 5.90625 -2.890625 C 5.90625 -3.410156 5.796875 -3.878906 5.578125 -4.296875 C 5.367188 -4.710938 5.078125 -5.039062 4.703125 -5.28125 C 4.328125 -5.519531 3.90625 -5.640625 3.4375 -5.640625 C 3.007812 -5.640625 2.628906 -5.53125 2.296875 -5.3125 C 1.960938 -5.09375 1.703125 -4.785156 1.515625 -4.390625 C 1.328125 -3.992188 1.234375 -3.53125 1.234375 -3 C 1.234375 -2.476562 1.335938 -2.007812 1.546875 -1.59375 C 1.765625 -1.175781 2.0625 -0.847656 2.4375 -0.609375 C 2.8125 -0.367188 3.234375 -0.25 3.703125 -0.25 C 4.128906 -0.25 4.507812 -0.359375 4.84375 -0.578125 C 5.175781 -0.796875 5.4375 -1.101562 5.625 -1.5 C 5.8125 -1.894531 5.90625 -2.359375 5.90625 -2.890625 Z M 5.90625 -2.890625 "/></g></g></g></g><g clip-path="url(#0b4ddddb44)"><g fill="#f1eee9" fill-opacity="1"><g transform="translate(96.715972, 6.584188)"><g><path d="M 2.453125 -2.96875 C 2.710938 -2.96875 2.9375 -3.023438 3.125 -3.140625 C 3.320312 -3.265625 3.46875 -3.425781 3.5625 -3.625 C 3.664062 -3.820312 3.71875 -4.03125 3.71875 -4.25 C 3.71875 -4.46875 3.671875 -4.675781 3.578125 -4.875 C 3.484375 -5.070312 3.335938 -5.234375 3.140625 -5.359375 C 2.953125 -5.484375 2.71875 -5.546875 2.4375 -5.546875 L 1.71875 -5.546875 L 1.71875 -0.78125 C 1.71875 -0.550781 1.742188 -0.378906 1.796875 -0.265625 C 1.859375 -0.148438 1.921875 -0.0703125 1.984375 -0.03125 C 2.054688 0 2.09375 0.0078125 2.09375 0 L 0.734375 0 C 0.734375 0.0078125 0.765625 -0.00390625 0.828125 -0.046875 C 0.898438 -0.0859375 0.960938 -0.160156 1.015625 -0.265625 C 1.066406 -0.378906 1.09375 -0.550781 1.09375 -0.78125 L 1.09375 -5.0625 C 1.09375 -5.300781 1.066406 -5.476562 1.015625 -5.59375 C 0.960938 -5.71875 0.898438 -5.800781 0.828125 -5.84375 C 0.765625 -5.894531 0.734375 -5.910156 0.734375 -5.890625 L 2.421875 -5.890625 C 2.867188 -5.890625 3.234375 -5.816406 3.515625 -5.671875 C 3.804688 -5.523438 4.015625 -5.335938 4.140625 -5.109375 C 4.273438 -4.878906 4.34375 -4.625 4.34375 -4.34375 C 4.34375 -4.113281 4.285156 -3.890625 4.171875 -3.671875 C 4.066406 -3.453125 3.910156 -3.257812 3.703125 -3.09375 C 3.503906 -2.9375 3.269531 -2.828125 3 -2.765625 L 2.875 -2.734375 L 4.375 -0.828125 C 4.570312 -0.597656 4.734375 -0.421875 4.859375 -0.296875 C 4.992188 -0.179688 5.09375 -0.101562 5.15625 -0.0625 C 5.21875 -0.03125 5.253906 -0.0078125 5.265625 0 L 4.265625 0 L 1.9375 -2.96875 Z M 2.453125 -2.96875 "/></g></g></g></g><g clip-path="url(#45ab0bf766)"><g fill="#f1eee9" fill-opacity="1"><g transform="translate(104.055306, 6.584188)"><g><path d="M 0.71875 0 C 0.71875 0.0195312 0.75 0.0078125 0.8125 -0.03125 C 0.882812 -0.0820312 0.945312 -0.164062 1 -0.28125 C 1.0625 -0.394531 1.09375 -0.566406 1.09375 -0.796875 L 1.09375 -5.09375 C 1.09375 -5.320312 1.066406 -5.492188 1.015625 -5.609375 C 0.960938 -5.722656 0.898438 -5.800781 0.828125 -5.84375 C 0.765625 -5.882812 0.734375 -5.898438 0.734375 -5.890625 L 2.09375 -5.890625 C 2.09375 -5.898438 2.054688 -5.882812 1.984375 -5.84375 C 1.921875 -5.800781 1.859375 -5.722656 1.796875 -5.609375 C 1.742188 -5.492188 1.71875 -5.320312 1.71875 -5.09375 L 1.71875 -0.796875 C 1.71875 -0.566406 1.742188 -0.394531 1.796875 -0.28125 C 1.859375 -0.164062 1.921875 -0.0859375 1.984375 -0.046875 C 2.054688 -0.00390625 2.09375 0.0078125 2.09375 0 Z M 0.71875 0 "/></g></g></g></g><g clip-path="url(#89a1986653)"><g fill="#f1eee9" fill-opacity="1"><g transform="translate(108.756934, 6.584188)"><g><path d="M 1.8125 -2.28125 L 1.265625 -0.921875 C 1.171875 -0.710938 1.125 -0.539062 1.125 -0.40625 C 1.125 -0.21875 1.210938 -0.0820312 1.390625 0 L 0.15625 0 C 0.21875 0 0.300781 -0.0546875 0.40625 -0.171875 C 0.519531 -0.285156 0.644531 -0.507812 0.78125 -0.84375 L 3.015625 -6.171875 L 5.234375 -0.828125 C 5.359375 -0.515625 5.476562 -0.300781 5.59375 -0.1875 C 5.71875 -0.0703125 5.8125 -0.0078125 5.875 0 L 4.46875 0 C 4.601562 -0.0703125 4.671875 -0.175781 4.671875 -0.3125 C 4.671875 -0.4375 4.625 -0.609375 4.53125 -0.828125 L 3.9375 -2.28125 Z M 3.796875 -2.640625 L 2.875 -4.921875 L 1.953125 -2.640625 Z M 3.796875 -2.640625 "/></g></g></g></g><g clip-path="url(#cf1b8bb1c8)"><g fill="#f1eee9" fill-opacity="1"><g transform="translate(116.678623, 6.584188)"><g><path d="M 2.28125 0.109375 C 1.988281 0.109375 1.703125 0.0664062 1.421875 -0.015625 C 1.148438 -0.0976562 0.90625 -0.21875 0.6875 -0.375 L 0.6875 -1.40625 C 0.84375 -1.019531 1.070312 -0.726562 1.375 -0.53125 C 1.675781 -0.332031 1.992188 -0.234375 2.328125 -0.234375 C 2.660156 -0.234375 2.9375 -0.34375 3.15625 -0.5625 C 3.382812 -0.789062 3.5 -1.066406 3.5 -1.390625 C 3.5 -1.609375 3.453125 -1.789062 3.359375 -1.9375 C 3.273438 -2.09375 3.132812 -2.238281 2.9375 -2.375 C 2.738281 -2.507812 2.460938 -2.660156 2.109375 -2.828125 C 1.617188 -3.054688 1.257812 -3.289062 1.03125 -3.53125 C 0.800781 -3.78125 0.6875 -4.082031 0.6875 -4.4375 C 0.6875 -4.738281 0.757812 -5.007812 0.90625 -5.25 C 1.050781 -5.488281 1.25 -5.671875 1.5 -5.796875 C 1.75 -5.929688 2.023438 -6 2.328125 -6 C 2.578125 -6 2.820312 -5.960938 3.0625 -5.890625 C 3.3125 -5.816406 3.546875 -5.710938 3.765625 -5.578125 L 3.765625 -4.65625 C 3.617188 -4.96875 3.40625 -5.210938 3.125 -5.390625 C 2.851562 -5.566406 2.578125 -5.65625 2.296875 -5.65625 C 1.972656 -5.65625 1.707031 -5.546875 1.5 -5.328125 C 1.300781 -5.117188 1.203125 -4.867188 1.203125 -4.578125 C 1.203125 -4.367188 1.257812 -4.1875 1.375 -4.03125 C 1.5 -3.882812 1.648438 -3.757812 1.828125 -3.65625 C 2.003906 -3.550781 2.25 -3.425781 2.5625 -3.28125 C 2.882812 -3.125 3.144531 -2.976562 3.34375 -2.84375 C 3.550781 -2.71875 3.722656 -2.546875 3.859375 -2.328125 C 3.992188 -2.117188 4.0625 -1.863281 4.0625 -1.5625 C 4.0625 -1.21875 3.976562 -0.921875 3.8125 -0.671875 C 3.65625 -0.421875 3.441406 -0.226562 3.171875 -0.09375 C 2.898438 0.0390625 2.601562 0.109375 2.28125 0.109375 Z M 2.28125 0.109375 "/></g></g></g></g></g></g></g></g></g></svg>